 <svg
                width="32"
                height="32"
                viewBox="0 0 32 32"
                fill="none"
                xmlns="http://www.w3.org/2000/svg"
              >
                <path
                  d="M26 0C27.6528 0 29.066 0.551656 30.2396 1.65497C31.4132 2.75828 32 4.08682 32 5.6406V24.4426C32 25.9964 31.4132 27.3249 30.2396 28.4282C29.066 29.5315 27.6528 30.0832 26 30.0832H22.0833V18.4299H26.2292L26.8542 13.8861H22.0833V10.9874C22.0833 10.2562 22.2465 9.70784 22.5729 9.34225C22.8993 8.97665 23.5347 8.79385 24.4792 8.79385L27.0208 8.77427V4.72009C26.1458 4.60257 24.9097 4.54382 23.3125 4.54382C21.4236 4.54382 19.9132 5.0661 18.7812 6.11065C17.6493 7.15521 17.0833 8.63064 17.0833 10.537V13.8861H12.9167V18.4299H17.0833V30.0832H6C4.34722 30.0832 2.93403 29.5315 1.76042 28.4282C0.586806 27.3249 0 25.9964 0 24.4426V5.6406C0 4.08682 0.586806 2.75828 1.76042 1.65497C2.93403 0.551656 4.34722 0 6 0H26Z"
                  fill="#F42A40"
                />
              </svg>