<svg
                    width="24"
                    height="24"
                    viewBox="0 0 24 24"
                    fill="none"
                    xmlns="http://www.w3.org/2000/svg"
                  >
                    <g clip-path="url(#clip0_46_140)">
                      <path
                        fill-rule="evenodd"
                        clip-rule="evenodd"
                        d="M19.6395 17.3273C19.0221 19.2033 16.6036 20.1392 14.8756 19.9832C12.5157 19.7699 9.9478 18.5179 7.99853 17.1393C5.1333 15.1127 2.4494 11.9782 0.885453 8.65163C-0.219841 6.30105 -0.467832 3.41049 1.17611 1.2679C1.78409 0.475927 2.44273 0.0532752 3.42936 0.00394359C4.79998 -0.0627207 4.99197 0.721251 5.46262 1.94254C5.81328 2.85584 6.28126 3.78781 6.54258 4.73444C7.0319 6.50104 5.3213 6.57437 5.1053 8.01832C4.97197 8.92896 6.0746 10.1502 6.57325 10.7996C7.5344 12.0641 8.71159 13.1488 10.0505 14.0034C10.8104 14.4821 12.0344 15.3447 12.9037 14.8687C14.2423 14.1354 14.117 11.8782 15.9876 12.6422C16.9569 13.0368 17.8955 13.6061 18.8208 14.1048C20.2514 14.8741 20.1848 15.6714 19.6395 17.3273C20.0474 16.09 19.2315 18.5646 19.6395 17.3273Z"
                        fill="#F42A40"
                      />
                    </g>
                    <defs>
                      <clipPath id="clip0_46_140">
                        <rect width="24" height="24" fill="white" />
                      </clipPath>
                    </defs>
                  </svg>