 <svg
                width="34"
                height="34"
                viewBox="0 0 34 34"
                fill="none"
                xmlns="http://www.w3.org/2000/svg"
              >
                <path
                  fill-rule="evenodd"
                  clip-rule="evenodd"
                  d="M7.25121 0H26.7488C30.7535 0 34 3.24648 34 7.25121V26.7488C34 30.7535 30.7535 34 26.7488 34H7.25121C3.24648 34 0 30.7535 0 26.7488V7.25121C0 3.24648 3.24648 0 7.25121 0ZM24.9958 12.4854C25.8053 12.3895 26.596 12.173 27.3414 11.843H27.3464C26.7986 12.6597 26.1014 13.3819 25.3045 13.9546C25.3145 14.1339 25.3145 14.3082 25.3145 14.4825C25.3145 19.886 21.2058 26.1113 13.6857 26.1113C11.3748 26.1113 9.22836 25.439 7.42054 24.2786C8.49094 24.4082 9.57638 24.3253 10.6147 24.0347C11.653 23.7442 12.6238 23.2516 13.4715 22.5853C12.6192 22.5682 11.7935 22.2855 11.1097 21.7766C10.4258 21.2677 9.91782 20.5581 9.65666 19.7466C10.2681 19.8647 10.8985 19.8408 11.4993 19.6769C9.63176 19.3034 8.22235 17.6499 8.22235 15.6678V15.618C8.78999 15.9347 9.42531 16.1106 10.075 16.131C9.20787 15.554 8.59394 14.6676 8.3588 13.6529C8.12365 12.6383 8.28507 11.5722 8.81002 10.6726C9.83624 11.9345 11.1163 12.9666 12.5671 13.7019C14.0179 14.4372 15.6071 14.8592 17.2316 14.9407C17.1611 14.6353 17.126 14.3228 17.127 14.0094C17.1249 13.1885 17.3703 12.386 17.8311 11.7066C18.2919 11.0273 18.9468 10.5025 19.7102 10.2009C20.4737 9.89929 21.3104 9.83475 22.1111 10.0157C22.9118 10.1967 23.6394 10.6148 24.1989 11.2155C25.1121 11.0342 25.9878 10.6991 26.7886 10.2244C26.4898 11.1756 25.8424 11.9774 24.9958 12.4854Z"
                  fill="#F42A40"
                />
              </svg>