<svg width="178" height="178" viewBox="0 0 178 178" fill="none" xmlns="http://www.w3.org/2000/svg">
<circle cx="89" cy="89" r="86" fill="#FEFEFE" stroke="#F42A40" stroke-width="6"/>
<path d="M84.776 73.872C84.776 78.864 84.104 83.28 82.76 87.12C81.48 90.896 79.336 93.872 76.328 96.048C73.32 98.16 69.224 99.216 64.04 99.216C60.392 99.216 56.968 98.64 53.768 97.488C50.568 96.272 47.624 94.16 44.936 91.152C42.248 88.08 39.816 83.792 37.64 78.288C35.464 72.72 33.576 65.584 31.976 56.88L43.88 54C45.544 62.832 47.304 69.744 49.16 74.736C51.016 79.664 53.096 83.152 55.4 85.2C57.704 87.184 60.296 88.176 63.176 88.176C65.416 88.176 67.176 87.6 68.456 86.448C69.736 85.232 70.664 83.536 71.24 81.36C71.816 79.184 72.104 76.624 72.104 73.68C72.104 70.8 71.752 68.016 71.048 65.328C70.408 62.64 69.512 60.432 68.36 58.704C67.208 56.912 65.896 56.016 64.424 56.016C63.528 56.016 62.76 56.368 62.12 57.072C61.544 57.712 61.256 58.576 61.256 59.664C61.256 60.304 61.352 61.072 61.544 61.968C61.8 62.8 62.088 63.568 62.408 64.272L50.504 67.44C49.864 65.712 49.352 64.048 48.968 62.448C48.648 60.848 48.488 59.088 48.488 57.168C48.488 54.224 49.224 51.92 50.696 50.256C52.168 48.528 53.992 47.312 56.168 46.608C58.344 45.84 60.456 45.456 62.504 45.456C67.688 45.456 71.912 46.768 75.176 49.392C78.504 52.016 80.936 55.504 82.472 59.856C84.008 64.144 84.776 68.816 84.776 73.872ZM118.481 102C112.017 102 107.249 100.656 104.177 97.968C101.105 95.28 99.569 92.016 99.569 88.176C99.569 84.528 100.625 81.552 102.737 79.248C104.849 76.944 107.953 74.992 112.049 73.392L116.753 84.048C115.345 84.368 114.321 84.816 113.681 85.392C113.041 85.968 112.721 86.64 112.721 87.408C112.721 88.432 113.201 89.296 114.161 90C115.121 90.704 116.561 91.056 118.481 91.056C121.489 91.056 123.761 90.384 125.297 89.04C126.833 87.696 127.601 86.064 127.601 84.144C127.601 82.352 127.153 80.784 126.257 79.44C125.425 78.096 124.049 76.752 122.129 75.408C120.209 74 117.713 72.4 114.641 70.608C110.609 68.176 107.473 66.032 105.233 64.176C103.057 62.32 101.521 60.496 100.625 58.704C99.793 56.848 99.377 54.768 99.377 52.464C99.377 50.672 99.825 48.816 100.721 46.896C101.617 44.912 102.865 43.088 104.465 41.424L115.601 47.856C114.961 48.496 114.385 49.2 113.873 49.968C113.425 50.672 113.201 51.408 113.201 52.176C113.201 52.88 113.329 53.52 113.585 54.096C113.841 54.608 114.385 55.216 115.217 55.92C116.049 56.624 117.329 57.552 119.057 58.704C120.785 59.792 123.121 61.264 126.065 63.12C129.521 65.296 132.305 67.44 134.417 69.552C136.593 71.6 138.161 73.808 139.121 76.176C140.145 78.544 140.657 81.328 140.657 84.528C140.657 88.176 139.729 91.312 137.873 93.936C136.017 96.56 133.425 98.576 130.097 99.984C126.769 101.328 122.897 102 118.481 102Z" fill="#006A4E"/>
<path d="M84.776 73.872C84.776 78.864 84.104 83.28 82.76 87.12C81.48 90.896 79.336 93.872 76.328 96.048C73.32 98.16 69.224 99.216 64.04 99.216C60.392 99.216 56.968 98.64 53.768 97.488C50.568 96.272 47.624 94.16 44.936 91.152C42.248 88.08 39.816 83.792 37.64 78.288C35.464 72.72 33.576 65.584 31.976 56.88L43.88 54C45.544 62.832 47.304 69.744 49.16 74.736C51.016 79.664 53.096 83.152 55.4 85.2C57.704 87.184 60.296 88.176 63.176 88.176C65.416 88.176 67.176 87.6 68.456 86.448C69.736 85.232 70.664 83.536 71.24 81.36C71.816 79.184 72.104 76.624 72.104 73.68C72.104 70.8 71.752 68.016 71.048 65.328C70.408 62.64 69.512 60.432 68.36 58.704C67.208 56.912 65.896 56.016 64.424 56.016C63.528 56.016 62.76 56.368 62.12 57.072C61.544 57.712 61.256 58.576 61.256 59.664C61.256 60.304 61.352 61.072 61.544 61.968C61.8 62.8 62.088 63.568 62.408 64.272L50.504 67.44C49.864 65.712 49.352 64.048 48.968 62.448C48.648 60.848 48.488 59.088 48.488 57.168C48.488 54.224 49.224 51.92 50.696 50.256C52.168 48.528 53.992 47.312 56.168 46.608C58.344 45.84 60.456 45.456 62.504 45.456C67.688 45.456 71.912 46.768 75.176 49.392C78.504 52.016 80.936 55.504 82.472 59.856C84.008 64.144 84.776 68.816 84.776 73.872ZM118.481 102C112.017 102 107.249 100.656 104.177 97.968C101.105 95.28 99.569 92.016 99.569 88.176C99.569 84.528 100.625 81.552 102.737 79.248C104.849 76.944 107.953 74.992 112.049 73.392L116.753 84.048C115.345 84.368 114.321 84.816 113.681 85.392C113.041 85.968 112.721 86.64 112.721 87.408C112.721 88.432 113.201 89.296 114.161 90C115.121 90.704 116.561 91.056 118.481 91.056C121.489 91.056 123.761 90.384 125.297 89.04C126.833 87.696 127.601 86.064 127.601 84.144C127.601 82.352 127.153 80.784 126.257 79.44C125.425 78.096 124.049 76.752 122.129 75.408C120.209 74 117.713 72.4 114.641 70.608C110.609 68.176 107.473 66.032 105.233 64.176C103.057 62.32 101.521 60.496 100.625 58.704C99.793 56.848 99.377 54.768 99.377 52.464C99.377 50.672 99.825 48.816 100.721 46.896C101.617 44.912 102.865 43.088 104.465 41.424L115.601 47.856C114.961 48.496 114.385 49.2 113.873 49.968C113.425 50.672 113.201 51.408 113.201 52.176C113.201 52.88 113.329 53.52 113.585 54.096C113.841 54.608 114.385 55.216 115.217 55.92C116.049 56.624 117.329 57.552 119.057 58.704C120.785 59.792 123.121 61.264 126.065 63.12C129.521 65.296 132.305 67.44 134.417 69.552C136.593 71.6 138.161 73.808 139.121 76.176C140.145 78.544 140.657 81.328 140.657 84.528C140.657 88.176 139.729 91.312 137.873 93.936C136.017 96.56 133.425 98.576 130.097 99.984C126.769 101.328 122.897 102 118.481 102Z" fill="black" fill-opacity="0.2"/>
<path d="M78.068 124.608V127.164H61.724V137.892L61.22 137.172C62.18 136.092 63.272 135.084 64.496 134.148C65.72 133.212 67.052 132.36 68.492 131.592C69.932 130.8 71.468 130.104 73.1 129.504L75.44 131.808C74.984 132.648 74.612 133.464 74.324 134.256C74.06 135.048 73.856 135.876 73.712 136.74C73.592 137.604 73.532 138.564 73.532 139.62C73.532 140.796 73.628 141.924 73.82 143.004C74.012 144.084 74.336 145.296 74.792 146.64L72.092 147.252C71.66 145.86 71.324 144.504 71.084 143.184C70.844 141.84 70.724 140.448 70.724 139.008C70.724 138.024 70.796 137.1 70.94 136.236C71.084 135.372 71.276 134.604 71.516 133.932C71.78 133.236 72.044 132.672 72.308 132.24L72.74 132.42C71.372 132.972 70.04 133.644 68.744 134.436C67.448 135.228 66.176 136.14 64.928 137.172C63.68 138.204 62.396 139.38 61.076 140.7L58.952 139.26V127.164H55.64V124.608H78.068ZM108.219 124.608V127.164H82.3714L81.7954 126.84C82.8034 127.08 83.8114 127.464 84.8194 127.992C85.8514 128.52 86.7994 129.096 87.6634 129.72C88.5514 130.32 89.2594 130.896 89.7874 131.448L89.9674 133.464C89.1034 133.848 88.1914 134.268 87.2314 134.724C86.2954 135.18 85.3834 135.636 84.4954 136.092C83.6314 136.548 82.8634 137.004 82.1914 137.46L81.7954 136.848C83.6674 137.232 85.3114 137.724 86.7274 138.324C88.1434 138.924 89.4154 139.644 90.5434 140.484C91.6714 141.324 92.7514 142.308 93.7834 143.436C93.7594 143.028 93.7354 142.608 93.7114 142.176C93.7114 141.744 93.7114 141.3 93.7114 140.844V128.64H94.1794C95.4994 128.64 96.7714 128.748 97.9954 128.964C99.2434 129.18 100.395 129.54 101.451 130.044C102.531 130.548 103.479 131.232 104.295 132.096C104.871 132.696 105.327 133.38 105.663 134.148C106.023 134.892 106.203 135.72 106.203 136.632C106.203 137.424 106.035 138.18 105.699 138.9C105.387 139.596 104.871 140.172 104.151 140.628C103.431 141.084 102.471 141.312 101.271 141.312C100.911 141.312 100.551 141.3 100.191 141.276C99.8554 141.252 99.5194 141.204 99.1834 141.132L99.3634 138.576C99.5074 138.6 99.6874 138.624 99.9034 138.648C100.119 138.648 100.347 138.648 100.587 138.648C101.763 138.648 102.519 138.42 102.855 137.964C103.215 137.508 103.395 136.968 103.395 136.344C103.395 135.12 102.771 134.04 101.523 133.104C100.299 132.168 98.6194 131.592 96.4834 131.376V147H93.7114C92.7274 145.656 91.6354 144.48 90.4354 143.472C89.2594 142.464 87.8794 141.624 86.2954 140.952C84.7354 140.256 82.8754 139.728 80.7154 139.368L79.4194 136.092C80.1634 135.588 80.9434 135.108 81.7594 134.652C82.5754 134.196 83.4034 133.752 84.2434 133.32C85.1074 132.888 85.9474 132.48 86.7634 132.096C85.8514 131.4 84.7954 130.788 83.5954 130.26C82.4194 129.708 81.0274 129.264 79.4194 128.928L80.5354 126.48L80.6074 127.164H77.3314V124.608H108.219ZM117.791 124.608V127.164H114.011V147H111.239V130.116C110.951 129.3 110.519 128.604 109.943 128.028C109.391 127.452 108.671 127.164 107.783 127.164H107.495V124.608H108.035C108.611 124.608 109.211 124.8 109.835 125.184C110.459 125.544 110.963 126.108 111.347 126.876C111.323 126.756 111.299 126.48 111.275 126.048C111.251 125.616 111.239 125.244 111.239 124.932V122.232H113.183L113.975 124.608H117.791Z" fill="#383838"/>
</svg>
